<?xml version="1.0" encoding="UTF-8"?>
<svg width="800" height="600" viewBox="0 0 800 600" fill="none" xmlns="http://www.w3.org/2000/svg">
  <!-- Background Shapes -->
  <path d="M600 100 Q 700 150, 650 250 T 600 400" stroke="#E2E8F0" stroke-width="2" fill="none"/>
  <path d="M100 200 Q 200 250, 150 350 T 100 500" stroke="#E2E8F0" stroke-width="2" fill="none"/>
  
  <!-- Main Dashboard Card -->
  <rect x="200" y="100" width="400" height="300" rx="16" fill="white" stroke="#E2E8F0" stroke-width="2"/>
  
  <!-- Top Bar -->
  <rect x="200" y="100" width="400" height="50" rx="16" fill="#2563EB" stroke="#2563EB" stroke-width="2"/>
  <circle cx="230" cy="125" r="8" fill="white"/>
  <circle cx="260" cy="125" r="8" fill="white"/>
  <circle cx="290" cy="125" r="8" fill="white"/>
  
  <!-- Dashboard Content -->
  <!-- Chart -->
  <rect x="220" y="170" width="160" height="100" rx="8" fill="#F1F5F9"/>
  <path d="M230 240 L 270 200 L 310 220 L 350 180" stroke="#2563EB" stroke-width="2" fill="none"/>
  
  <!-- Stats Cards -->
  <rect x="400" y="170" width="180" height="45" rx="8" fill="#F1F5F9"/>
  <rect x="400" y="225" width="180" height="45" rx="8" fill="#F1F5F9"/>
  
  <!-- Bottom Section -->
  <rect x="220" y="290" width="360" height="90" rx="8" fill="#F1F5F9"/>
  
  <!-- Floating Elements -->
  <!-- Employee Card -->
  <g transform="translate(500, 50)">
    <rect width="120" height="160" rx="12" fill="white" stroke="#E2E8F0" stroke-width="2"/>
    <circle cx="60" cy="40" r="20" fill="#F1F5F9"/>
    <rect x="20" y="80" width="80" height="8" rx="4" fill="#F1F5F9"/>
    <rect x="20" y="100" width="60" height="8" rx="4" fill="#F1F5F9"/>
    <rect x="20" y="120" width="40" height="8" rx="4" fill="#F1F5F9"/>
  </g>
  
  <!-- Calendar Card -->
  <g transform="translate(180, 250)">
    <rect width="140" height="180" rx="12" fill="white" stroke="#E2E8F0" stroke-width="2"/>
    <rect x="20" y="20" width="100" height="20" rx="4" fill="#2563EB"/>
    <rect x="20" y="60" width="100" height="100" rx="4" fill="#F1F5F9"/>
  </g>
  
  <!-- Decorative Elements -->
  <circle cx="650" cy="150" r="30" fill="#F1F5F9"/>
  <circle cx="680" cy="170" r="20" fill="#E2E8F0"/>
  <circle cx="150" cy="450" r="40" fill="#F1F5F9"/>
  <circle cx="120" cy="420" r="25" fill="#E2E8F0"/>
  
  <!-- Abstract Connecting Lines -->
  <path d="M320 400 C 400 450, 500 350, 600 400" stroke="#E2E8F0" stroke-width="2" fill="none"/>
  <path d="M200 350 C 300 300, 400 400, 500 350" stroke="#E2E8F0" stroke-width="2" fill="none"/>
</svg> 